<?xml version="1.0" encoding="UTF-8"?>
<svg id="Layer_2" data-name="Layer 2" xmlns="http://www.w3.org/2000/svg" viewBox="0 0 566 168.42">
  <defs>
    <style>
      .cls-1 {
        fill: #fff;
      }
    </style>
  </defs>
  <g id="Layer_1" data-name="Layer 1">
    <g>
      <g>
        <path class="cls-1" d="M0,167.73v-32.67h13.5c7.89,0,11.12,3.53,11.12,8.44,0,2.98-1.39,5.51-4.47,6.95,4.02,1.34,5.86,4.37,5.86,7.84,0,5.11-3.48,9.43-11.57,9.43H0ZM5.61,148.32h7.8c3.52,0,5.16-1.84,5.16-4.22s-1.64-3.87-5.06-3.87h-7.89v8.09ZM14.45,162.57c3.72,0,5.61-1.98,5.61-4.62s-1.89-4.72-5.61-4.72H5.61v9.33h8.84Z"/>
        <path class="cls-1" d="M43.03,155.22l-11.67-20.16h6.16l8.34,14.9,8.34-14.9h6.11l-11.62,20.16v12.51h-5.66v-12.51Z"/>
        <path class="cls-1" d="M111.42,157.55l4.67,3.08c-2.88,4.77-8.49,7.79-14.45,7.79-9.58,0-17.18-7.59-17.18-16.98s7.6-17.08,17.13-17.08c6.06,0,11.62,3.08,14.5,7.8l-4.62,3.08c-2.04-3.38-5.81-5.46-9.83-5.46-6.4,0-11.57,5.07-11.57,11.67s5.16,11.57,11.57,11.57c4.07,0,7.7-2.03,9.78-5.46Z"/>
        <path class="cls-1" d="M125.6,135.06h5.61v13.21h16.04v-13.21h5.61v32.67h-5.61v-14.15h-16.04v14.15h-5.61v-32.67Z"/>
        <path class="cls-1" d="M187.44,167.73h-23.38v-32.67h23.14v5.22h-17.53v8.29h17.08v5.06h-17.08v8.89h17.77v5.21Z"/>
        <path class="cls-1" d="M219.79,167.73h-22.54v-32.67h5.61v27.36h16.93v5.31Z"/>
        <path class="cls-1" d="M251.2,167.73h-22.54v-32.67h5.61v27.36h16.93v5.31Z"/>
        <path class="cls-1" d="M270.15,135.06h6.26l12.91,32.67h-6.11l-2.58-6.55h-14.65l-2.63,6.55h-6.11l12.91-32.67ZM267.82,156.26h10.92l-5.36-14.35h-.1l-5.46,14.35Z"/>
        <path class="cls-1" d="M297.84,135.06h6.06l16.38,23.44v-23.44h5.66v32.67h-5.86l-16.63-24.03v24.03h-5.61v-32.67Z"/>
      </g>
      <g>
        <polygon class="cls-1" points="15.15 0 .34 0 .34 115.34 84.46 115.34 84.46 101.27 15.15 101.27 15.15 0"/>
        <polygon class="cls-1" points="298.34 88.86 222.62 0 207.81 0 207.81 115.34 222.62 115.34 222.62 26.48 298.34 115.34 313.15 115.34 313.15 0 298.34 0 298.34 88.86"/>
        <path class="cls-1" d="M400.8,55.35c-6.6-2.34-15.21-4.75-25.83-7.22-11.36-2.59-19.78-5.09-25.27-7.5-5.49-2.41-8.42-6.14-8.79-11.2-.49-5.31,1.17-9.19,5-11.66,3.82-2.47,8.39-3.7,13.7-3.7h60.17V0h-59.98c-12.71,0-21.72,3.06-27.03,9.17-5.31,6.11-7.78,12.93-7.4,20.46.37,6.91,2.81,12.56,7.31,16.94,4.5,4.38,9.87,7.71,16.11,10,6.23,2.29,14.35,4.66,24.35,7.13,12.34,3.09,21.5,6.08,27.49,8.98,5.98,2.9,9.1,7.31,9.35,13.24.37,5.68-1.45,9.66-5.46,11.94-4.01,2.28-8.86,3.43-14.53,3.43h-62.76v14.07h63.87c12.71,0,21.66-3.05,26.84-9.16,5.18-6.11,7.71-12.93,7.59-20.46-.25-8.14-2.78-14.65-7.59-19.53-4.81-4.87-10.52-8.48-17.12-10.83Z"/>
        <polygon class="cls-1" points="96.16 .16 96.16 .16 96.16 113.5 96.16 113.5 96.16 115.74 187.78 115.74 187.78 101.41 112.5 101.41 112.5 64.83 187.78 64.83 187.78 50.51 112.5 50.51 112.5 14.48 187.78 14.48 187.78 .16 112.5 .16 96.16 .16"/>
      </g>
      <g>
        <polygon class="cls-1" points="545.96 114.89 554.3 114.89 561.07 99.97 534.85 99.97 545.96 114.89"/>
        <polygon class="cls-1" points="468.51 99.97 453.97 99.97 453.97 59.95 554.3 59.95 561.07 45.03 453.97 45.03 453.97 14.92 554.3 14.92 561.07 0 453.97 0 438.07 0 438.07 0 438.07 14.92 438.07 14.92 438.07 45.03 438.07 45.03 438.07 59.95 438.07 59.95 438.07 99.97 438.07 99.97 438.07 114.89 457.41 114.89 468.51 99.97"/>
        <path class="cls-1" d="M498.98,73.98l-61.61,82.75h22.94l40.6-79.71c.32-.64,1.23-.64,1.56,0l40.6,79.71h22.94l-61.61-82.75c-1.35-1.81-4.07-1.81-5.42,0Z"/>
        <polygon class="cls-1" points="500.92 88.05 498.2 101.48 505.16 101.48 502.45 88.05 500.92 88.05"/>
        <polygon class="cls-1" points="494.74 126.69 508.62 126.69 506.27 112.36 497.08 112.36 494.74 126.69"/>
        <polygon class="cls-1" points="492.63 139.56 489.83 156.73 513.54 156.73 510.73 139.56 492.63 139.56"/>
      </g>
    </g>
  </g>
</svg>