<?xml version="1.0" encoding="UTF-8"?>
<svg id="Layer_2" data-name="Layer 2" xmlns="http://www.w3.org/2000/svg" viewBox="0 0 565.66 156.73">
  <defs>
    <style>
      .cls-1 {
        fill: #fff;
      }
    </style>
  </defs>
  <g id="Layer_1" data-name="Layer 1">
    <g>
      <g>
        <polygon class="cls-1" points="14.81 0 0 0 0 115.34 84.12 115.34 84.12 101.27 14.81 101.27 14.81 0"/>
        <polygon class="cls-1" points="298 88.86 222.28 0 207.47 0 207.47 115.34 222.28 115.34 222.28 26.48 298 115.34 312.81 115.34 312.81 0 298 0 298 88.86"/>
        <path class="cls-1" d="M400.46,55.35c-6.6-2.34-15.21-4.75-25.83-7.22-11.36-2.59-19.78-5.09-25.27-7.5-5.49-2.41-8.42-6.14-8.79-11.2-.49-5.31,1.17-9.19,5-11.66,3.82-2.47,8.39-3.7,13.7-3.7h60.17V0h-59.98c-12.71,0-21.72,3.06-27.03,9.17-5.31,6.11-7.78,12.93-7.4,20.46.37,6.91,2.81,12.56,7.31,16.94,4.5,4.38,9.87,7.71,16.11,10,6.23,2.29,14.35,4.66,24.35,7.13,12.34,3.09,21.5,6.08,27.49,8.98,5.98,2.9,9.1,7.31,9.35,13.24.37,5.68-1.45,9.66-5.46,11.94-4.01,2.28-8.86,3.43-14.53,3.43h-62.76v14.07h63.87c12.71,0,21.66-3.05,26.84-9.16,5.18-6.11,7.71-12.93,7.59-20.46-.25-8.14-2.78-14.65-7.59-19.53-4.81-4.87-10.52-8.48-17.12-10.83Z"/>
        <polygon class="cls-1" points="95.82 .16 95.82 .16 95.82 113.5 95.82 113.5 95.82 115.74 187.44 115.74 187.44 101.41 112.16 101.41 112.16 64.83 187.44 64.83 187.44 50.51 112.16 50.51 112.16 14.48 187.44 14.48 187.44 .16 112.16 .16 95.82 .16"/>
      </g>
      <g>
        <polygon class="cls-1" points="545.62 114.89 553.96 114.89 560.73 99.97 534.51 99.97 545.62 114.89"/>
        <polygon class="cls-1" points="468.17 99.97 453.63 99.97 453.63 59.95 553.96 59.95 560.73 45.03 453.63 45.03 453.63 14.92 553.96 14.92 560.73 0 453.63 0 437.73 0 437.73 0 437.73 14.92 437.73 14.92 437.73 45.03 437.73 45.03 437.73 59.95 437.73 59.95 437.73 99.97 437.73 99.97 437.73 114.89 457.07 114.89 468.17 99.97"/>
        <path class="cls-1" d="M498.64,73.98l-61.61,82.75h22.94l40.6-79.71c.32-.64,1.23-.64,1.56,0l40.6,79.71h22.94l-61.61-82.75c-1.35-1.81-4.07-1.81-5.42,0Z"/>
        <polygon class="cls-1" points="500.58 88.05 497.86 101.48 504.82 101.48 502.11 88.05 500.58 88.05"/>
        <polygon class="cls-1" points="494.4 126.69 508.28 126.69 505.94 112.36 496.75 112.36 494.4 126.69"/>
        <polygon class="cls-1" points="492.29 139.56 489.49 156.73 513.2 156.73 510.39 139.56 492.29 139.56"/>
      </g>
    </g>
  </g>
</svg>