<svg width="566" height="169" viewBox="0 0 566 169" fill="none" xmlns="http://www.w3.org/2000/svg">
<path d="M0 167.73V135.06H13.5C21.39 135.06 24.62 138.59 24.62 143.5C24.62 146.48 23.23 149.01 20.15 150.45C24.17 151.79 26.01 154.82 26.01 158.29C26.01 163.41 22.5401 167.73 14.4401 167.73H0ZM5.61011 148.32H13.41C16.93 148.32 18.5701 146.48 18.5701 144.09C18.5701 141.71 16.93 140.22 13.51 140.22H5.61011V148.32ZM14.4501 162.57C18.1801 162.57 20.0601 160.59 20.0601 157.96C20.0601 155.37 18.1801 153.24 14.4501 153.24H5.61011V162.57H14.4501Z" fill="#050E1E"/>
<path d="M43.0195 155.22L31.3496 135.06H37.5095L45.8496 149.95L54.1896 135.06H60.2996L48.6796 155.22V167.73H43.0195V155.22Z" fill="#050E1E"/>
<path d="M111.409 157.55L116.079 160.63C113.199 165.4 107.589 168.42 101.629 168.42C92.0492 168.42 84.4492 160.83 84.4492 151.44C84.4492 141.96 92.0492 134.36 101.579 134.36C107.639 134.36 113.199 137.44 116.079 142.16L111.459 145.24C109.429 141.86 105.649 139.77 101.629 139.77C95.2292 139.77 90.0592 144.84 90.0592 151.44C90.0592 157.95 95.2292 163.01 101.629 163.01C105.699 163.01 109.329 160.98 111.409 157.55Z" fill="#050E1E"/>
<path d="M125.59 135.06H131.2V148.27H147.24V135.06H152.85V167.73H147.24V153.58H131.2V167.73H125.59V135.06Z" fill="#050E1E"/>
<path d="M187.441 167.73H164.051V135.06H187.191V140.27H169.661V148.56H186.741V153.63H169.661V162.52H187.441V167.73Z" fill="#050E1E"/>
<path d="M219.79 167.73H197.25V135.06H202.86V162.42H219.79V167.73Z" fill="#050E1E"/>
<path d="M251.2 167.73H228.66V135.06H234.27V162.42H251.2V167.73Z" fill="#050E1E"/>
<path d="M270.15 135.06H276.41L289.31 167.73H283.21L280.63 161.17H265.98L263.35 167.73H257.24L270.15 135.06ZM267.82 156.26H278.74L273.38 141.91H273.28L267.82 156.26Z" fill="#050E1E"/>
<path d="M297.83 135.06H303.89L320.27 158.49V135.06H325.93V167.73H320.08L303.44 143.7V167.73H297.83V135.06Z" fill="#050E1E"/>
<path d="M15.1498 0H0.339844V115.34H84.4498V101.27H15.1498V0Z" fill="#050E1E"/>
<path d="M298.331 88.86L222.62 0H207.811V115.34H222.62V26.48L298.331 115.34H313.141V0H298.331V88.86Z" fill="#050E1E"/>
<path d="M400.799 55.36C394.192 53.0133 385.582 50.6067 374.969 48.14C363.616 45.5467 355.192 43.0467 349.699 40.64C344.212 38.2333 341.282 34.5 340.909 29.44C340.416 24.1333 342.082 20.2433 345.909 17.77C349.736 15.3033 354.302 14.07 359.609 14.07H419.779V0H359.789C347.076 0 338.066 3.05665 332.759 9.16998C327.452 15.2766 324.986 22.0933 325.359 29.62C325.726 36.5333 328.162 42.18 332.669 46.56C337.176 50.94 342.546 54.2733 348.779 56.56C355.012 58.8467 363.126 61.2233 373.119 63.69C385.459 66.7767 394.626 69.7666 400.619 72.66C406.599 75.5666 409.712 79.98 409.959 85.9C410.332 91.58 408.512 95.56 404.499 97.84C400.486 100.127 395.642 101.27 389.969 101.27H327.209V115.34H391.079C403.792 115.34 412.739 112.283 417.919 106.17C423.106 100.063 425.636 93.2433 425.509 85.71C425.262 77.57 422.732 71.06 417.919 66.18C413.106 61.3067 407.399 57.7 400.799 55.36Z" fill="#050E1E"/>
<path d="M96.1504 0.159973V113.5V115.74H187.77V101.41H112.5V64.83H187.77V50.51H112.5V14.48H187.77V0.159973H112.5H96.1504Z" fill="#050E1E"/>
<path d="M545.96 114.89H554.29L561.06 99.97H534.85L545.96 114.89Z" fill="#4DADA8"/>
<path d="M468.51 99.97H453.96V59.95H554.29L561.06 45.03H453.96V14.92H554.29L561.06 0H453.96H438.07V14.92V45.03V59.95V99.97V114.89H457.4L468.51 99.97Z" fill="#4DADA8"/>
<path d="M498.969 73.98L437.359 156.73H460.299L500.899 77.02C501.219 76.38 502.129 76.38 502.459 77.02L543.049 156.73H565.999L504.389 73.98C503.039 72.16 500.319 72.16 498.969 73.98Z" fill="#4DADA8"/>
<path d="M500.909 88.05L498.199 101.48H505.149L502.449 88.05H500.909Z" fill="#4DADA8"/>
<path d="M494.738 126.69H508.618L506.268 112.36H497.078L494.738 126.69Z" fill="#4DADA8"/>
<path d="M492.63 139.56L489.82 156.73H513.54L510.72 139.56H492.63Z" fill="#4DADA8"/>
</svg>
