<?xml version="1.0" encoding="UTF-8"?>
<svg id="Layer_3" data-name="Layer 3" xmlns="http://www.w3.org/2000/svg" viewBox="0 0 228.02 277.82">
  <defs>
    <style>
      .cls-1 {
        fill: #4dada8;
      }
    </style>
  </defs>
  <g id="Layer_1" data-name="Layer 1">
    <g>
      <polygon class="cls-1" points="192.5 203.67 207.28 203.67 219.28 177.21 172.81 177.21 192.5 203.67"/>
      <polygon class="cls-1" points="55.21 177.21 29.43 177.21 29.43 106.28 207.28 106.28 219.28 79.82 29.43 79.82 29.43 26.45 207.28 26.45 219.28 0 29.43 0 1.25 0 1.25 0 1.25 26.45 1.25 26.45 1.25 79.82 1.25 79.82 1.25 106.28 1.25 106.28 1.25 177.21 1.25 177.21 1.25 203.67 35.52 203.67 55.21 177.21"/>
      <path class="cls-1" d="M109.21,131.13L0,277.82h40.67l71.96-141.3c.57-1.13,2.18-1.13,2.76,0l71.96,141.3h40.67l-109.21-146.69c-2.39-3.21-7.21-3.21-9.6,0Z"/>
      <polygon class="cls-1" points="112.65 156.08 107.84 179.88 120.17 179.88 115.37 156.08 112.65 156.08"/>
      <polygon class="cls-1" points="101.71 224.57 126.31 224.57 122.15 199.18 105.86 199.18 101.71 224.57"/>
      <polygon class="cls-1" points="97.96 247.39 92.99 277.82 135.03 277.82 130.05 247.39 97.96 247.39"/>
    </g>
  </g>
</svg>